<?xml version="1.0" encoding="utf-8"?>
<!-- Generator: Adobe Illustrator 16.0.0, SVG Export Plug-In . SVG Version: 6.00 Build 0)  -->
<!DOCTYPE svg PUBLIC "-//W3C//DTD SVG 1.1//EN" "http://www.w3.org/Graphics/SVG/1.1/DTD/svg11.dtd">
<svg version="1.1" xmlns="http://www.w3.org/2000/svg" xmlns:xlink="http://www.w3.org/1999/xlink" x="0px" y="0px" width="857px"
	 height="320px" viewBox="80 350 857 320" enable-background="new 80 350 857 320" xml:space="preserve" fill="white">
<g id="レイヤー_5_2_">
	<g display="none">
		<g id="レイヤー_4_3_" display="inline">
			<polygon points="657.2763672,529.0930176 80.2578125,529.0930176 54.8881836,517.7600098 80.2578125,506.427002 
				657.2763672,506.427002 			"/>
			<path d="M785.6396484,648.3654785c-72.015625,0-130.6044922-58.5898438-130.6044922-130.6054688
				c0-25.4750977,7.3417969-50.1660156,21.2314453-71.4038086l21.7597656,14.2314453
				c-11.1162109,16.9956055-16.9912109,36.765625-16.9912109,57.1723633
				c0,57.6796875,46.9257813,104.6054688,104.6044922,104.6054688c57.6796875,0,104.6054688-46.9257813,104.6054688-104.6054688
				c0-14.3505859-2.8476563-28.246582-8.4648438-41.300293l23.8828125-10.2763672
				c7.0214844,16.3188477,10.5820313,33.6713867,10.5820313,51.5766602
				C916.2451172,589.7756348,857.6552734,648.3654785,785.6396484,648.3654785z"/>
			<path d="M857.5244141,433.6955566c-10.0605469-8.6098633-21.4316406-15.2753906-33.796875-19.8110352l4.8203125-13.1435547
				c13.9365234,5.1113281,26.7480469,12.6206055,38.0800781,22.3178711L857.5244141,433.6955566z"/>
			<path d="M761.6894531,411.8010254l-3.9511719-17.5605469c15.1630859-3.4125977,31.2226563-3.9956055,46.6181641-1.7109375
				l-2.640625,17.8046875C788.5029297,408.3737793,774.6992188,408.8737793,761.6894531,411.8010254z"/>
			<path d="M710.1884766,442.4475098l-15.5703125-15.5429688c10.9570313-10.9760742,23.6386719-19.7915039,37.6923828-26.2021484
				l9.1308594,20.015625C729.7919922,426.0319824,719.2773438,433.3425293,710.1884766,442.4475098z"/>
			<polygon points="785.4785156,562.427002 713.3320313,517.7600098 785.4785156,473.0930176 857.625,517.7600098 			"/>
		</g>
		<g display="inline">
			<rect x="769.4443359" y="660.7844238" width="32.0693359" height="21.1669922"/>
			
				<rect x="846.2485962" y="640.2036133" transform="matrix(0.8660157 -0.5000168 0.5000168 0.8660157 -209.8721924 518.3513184)" width="32.0692329" height="21.1675091"/>
			
				<rect x="692.6394653" y="640.2041016" transform="matrix(0.8660289 0.499994 -0.499994 0.8660289 420.3318481 -267.145874)" width="32.0687485" height="21.1675091"/>
			
				<rect x="621.0674438" y="467.4179077" transform="matrix(-0.2588091 0.9659285 -0.9659285 -0.2588091 1263.704834 -13.6827393)" width="32.0692101" height="21.1665993"/>
			
				<rect x="660.824707" y="398.5554504" transform="matrix(-0.7071068 0.7071068 -0.7071068 -0.7071068 1444.7752686 219.8323059)" width="32.0683975" height="21.1669369"/>
		</g>
	</g>
	<path display="none" fill="white" d="M931.9082031,570.4748535v-32.2255859h-78.4521484
		c-17.6816406,0-27.2744141,6.4501953-32.0068359,13.4521484v-12.2177734h-42.9707031v42.7744141l-36.875-42.7724609
		l-35.1533203,0.0009766v-0.0029297h-66.3349609v31.7177734h15.0527344v34.8876953H639.984375v35.6123047h62.4433594v0.0029297
		h42.96875v-42.7763672l36.875,42.7734375h39.1777344v-14.1611328c4.7324219,8.0136719,14.3242188,15.3945313,32.0048828,15.3945313
		h46.7783203c28.4511719,0,35.96875-19.1123047,35.96875-29.21875v-43.2412109H931.9082031z M691.2675781,606.0891113V571.201416
		h11.1601563v34.8876953H691.2675781z M893.2314453,606.7160645h-32.7753906v-4.3466797h32.7753906V606.7160645z"/>
	<g>
		<path d="M865.4794922,397.5612793c-10.0605469-8.6098633-21.4316406-15.2753906-33.796875-19.8110352l4.8203125-13.1435547
			c13.9365234,5.1113281,26.7480469,12.6206055,38.0800781,22.3178711L865.4794922,397.5612793z"/>
		<path d="M769.6445313,375.666748l-3.9511719-17.5605469c15.1630859-3.4125977,31.2226563-3.9956055,46.6181641-1.7109375
			l-2.640625,17.8046875C796.4580078,372.239502,782.6542969,372.739502,769.6445313,375.666748z"/>
		<path d="M718.1435547,406.3132324l-15.5703125-15.5429688c10.9570313-10.9760742,23.6386719-19.7915039,37.6923828-26.2021484
			l9.1308594,20.015625C737.7470703,389.8977051,727.2324219,397.208252,718.1435547,406.3132324z"/>
		<rect x="777.3994141" y="624.6506348" width="32.0693359" height="21.1660156"/>
		
			<rect x="629.022522" y="431.2836304" transform="matrix(-0.2588091 0.9659285 -0.9659285 -0.2588091 1238.8156738 -66.8529053)" width="32.0692101" height="21.1665993"/>
		
			<rect x="668.7797852" y="362.4211731" transform="matrix(-0.7071068 0.7071068 -0.7071068 -0.7071068 1432.8046875 152.5221558)" width="32.0683975" height="21.1669369"/>
		<g>
			<path d="M699.2226563,535.0666504v34.8886719h11.1601563v-25.0214844
				c-2.4052734-3.1523438-4.6357422-6.4472656-6.6767578-9.8671875H699.2226563z"/>
			<path d="M913.6181641,430.0490723l-23.8828125,10.2763672c5.6171875,13.0537109,8.4648438,26.949707,8.4648438,41.300293
				c0,7.0107422-0.6982422,13.8613281-2.0205078,20.4897461h26.4091797
				c1.0566406-6.6782227,1.6113281-13.5200195,1.6113281-20.4897461
				C924.2001953,463.720459,920.6396484,446.3679199,913.6181641,430.0490723z"/>
			<path d="M868.4111328,570.5822754h20.7158203c1.3232422-1.4199219,2.6152344-2.8691406,3.875-4.3476563h-24.5908203V570.5822754z
				"/>
			<path d="M705.9814453,424.4533691l-21.7597656-14.2314453c-11.8183594,18.0703125-18.8759766,38.6445313-20.7246094,60.0708008
				H88.2128906l-25.3696289,11.3330078l25.3696289,11.3330078h575.2724609
				c0.3056641,3.5043945,0.7460938,6.9702148,1.3212891,10.3911133h26.4589844
				c-1.4873047-7.0112305-2.2753906-14.2768555-2.2753906-21.7241211
				C688.9902344,461.2189941,694.8652344,441.4489746,705.9814453,424.4533691z"/>
			<path d="M829.4042969,591.4064941v14.1601563h-39.1777344l-18.6943359-21.6835938
				c-6.2871094-1.3554688-12.3662109-3.2753906-18.1806641-5.7070313v27.3945313h-0.9472656
				c12.9550781,4.3164063,26.8037109,6.6601563,41.1904297,6.6601563c17.1318359,0,33.5-3.3203125,48.5039063-9.34375
				C836.0605469,599.9865723,831.9960938,595.795166,829.4042969,591.4064941z"/>
		</g>
		<polygon points="862.6728516,606.8010254 851.0605469,613.5041504 861.6435547,631.8361816 889.4160156,615.8010254 
			884.2197266,606.8010254 		"/>
		<polygon points="703.3603516,605.5666504 697.4511719,615.8029785 725.2236328,631.8361816 735.8066406,613.5061035 
			722.0625,605.5705566 		"/>
		<polygon points="786.4335938,503.3498535 829.4042969,503.3498535 829.4042969,504.0217285 865.5800781,481.6257324 
			793.4335938,436.9587402 721.2871094,481.6257324 786.4335938,521.9592285 		"/>
	</g>
</g>
<g id="レイヤー_4_2_">
	<polygon points="169.0800781,420.8649902 169.1220703,410.1560059 119.6220703,410.1560059 119.5800781,420.8649902 
		135.5800781,420.8649902 135.5800781,457.8649902 153.0800781,457.8649902 153.0800781,420.8649902 	"/>
	<path d="M387.2880859,373.8659668c0,0-47.8330078,0-71.5830078,0s-25.0209961,16.0253906-23.1010742,24.1210938
		c2.1850586,9.2119141,11.4892578,12.0097656,38.8500977,20.9619141
		c15.7431641,5.1513672,23.2021484,7.6484375,27.6259766,9.1679688c5.5830078,1.9160156,6.4580078,9.1328125,0.125,9.1328125
		c-9.0830078,0-67.25,0.0332031-67.25,0.0332031v20.5820313c0,0,48.5,0,74.25,0s24.5332031-22.8476563,24-25.3955078
		c-2.75-13.1455078-10.0400391-14.0771484-39.1669922-23.4365234c-13.3730469-4.2978516-27.1435547-9.0771484-31.7998047-11.0595703
		c-4.9501953-2.1064453-3.7421875-7.2402344,1.6328125-7.2402344c16.2460938,0,66.4169922,0,66.4169922,0V373.8659668z"/>
	<rect x="404.6220703" y="373.8659668" width="27.5830078" height="83.9990234"/>
	<path d="M546.09375,373.8669434l26.9316406,26.9306641l26.9296875-26.9306641l30.1464844-0.0097656L546.09375,457.8649902
		h-30.1386719c0,0,33.0048828-33.0039063,41.9892578-41.9882813l-41.9892578-42.0107422L546.09375,373.8669434"/>
	<path d="M501.4550781,373.8659668l-41.9375,42.0605469l41.9375,41.9384766h-30.1376953
		c0,0-23.8964844-23.8955078-31.8613281-31.8603516c-2.5351563-2.5341797-4.5-6.5537109-4.5-10.1376953
		s1.9658203-7.6044922,4.5-10.1396484c7.9648438-7.9648438,31.8613281-31.8613281,31.8613281-31.8613281H501.4550781z"/>
	<path d="M176.4829102,548.6975098c10.2749023-14.8242188,2.6147461-39.5839844-22.9868164-39.5839844h-44.5791016l0,0h-28.96875
		v90.6894531h28.96875h48.6479492C185.9985352,599.8029785,192.3017578,564.404541,176.4829102,548.6975098z
		 M108.9169922,527.3244629h39.6069336c13.2290039,0,13.2568359,13.953125,0.0878906,14.015625h-39.6948242V527.3244629z
		 M152.5942383,577.5803223h-43.6772461v-18.0273438h43.7001953
		C165.8525391,559.5744629,165.8452148,577.5803223,152.5942383,577.5803223z"/>
	<polygon points="194.9462891,510.3479004 223.9140625,510.3479004 223.9140625,577.2307129 299.9667969,577.2307129 
		299.9667969,598.5666504 194.9462891,598.5666504 	"/>
	<path d="M525.0634766,510.3518066c0,0-50.2353516,0-75.1787109,0c-24.9414063,0-26.2763672,16.8300781-24.2607422,25.3339844
		c2.2939453,9.6738281,12.0654297,12.6113281,40.8007813,22.0136719
		c16.5332031,5.4101563,24.3671875,8.0332031,29.0136719,9.6289063c5.8632813,2.0117188,6.7822266,9.5917969,0.1308594,9.5917969
		c-9.5390625,0-70.6269531,0.0351563-70.6269531,0.0351563v21.6132813c0,0,50.9355469,0,77.9775391,0
		c27.0429688,0,25.765625-23.9941406,25.2050781-26.6699219c-2.8886719-13.8046875-10.5429688-14.7832031-41.1328125-24.6113281
		c-14.0439453-4.515625-28.5058594-9.5332031-33.3964844-11.6152344c-5.1982422-2.2128906-3.9296875-7.6054688,1.7148438-7.6054688
		c17.0615234,0,69.7519531,0,69.7519531,0v-17.7148438H525.0634766z"/>
	<path d="M640.0605469,510.3518066c0,0-50.234375,0-75.1787109,0c-24.9414063,0-26.2753906,16.8300781-24.2597656,25.3339844
		c2.2939453,9.6738281,12.0654297,12.6113281,40.8007813,22.0136719
		c16.5332031,5.4101563,24.3662109,8.0332031,29.0126953,9.6289063c5.8642578,2.0117188,6.7832031,9.5917969,0.1318359,9.5917969
		c-9.5380859,0-70.6269531,0.0351563-70.6269531,0.0351563v21.6132813c0,0,50.9355469,0,77.9785156,0
		s25.7666016-23.9941406,25.2050781-26.6699219c-2.8876953-13.8046875-10.5429688-14.7832031-41.1328125-24.6113281
		c-14.0439453-4.515625-28.5058594-9.5332031-33.3964844-11.6152344c-5.1972656-2.2128906-3.9287109-7.6054688,1.7167969-7.6054688
		c17.0605469,0,69.7509766,0,69.7509766,0v-17.7148438H640.0605469z"/>
	<polygon points="692.2226563,576.9553223 707.4052734,576.9553223 707.4052734,598.5666504 654.9394531,598.5666504 
		654.9394531,576.9553223 670.1230469,576.9553223 670.1230469,528.0666504 655.0703125,528.0666504 655.0703125,510.3498535 
		707.4052734,510.3498535 707.4052734,528.0666504 692.2226563,528.0666504 	"/>
	<polygon points="746.3515625,543.9533691 793.4335938,598.5666504 822.4042969,598.5666504 822.4042969,510.3498535 
		793.4335938,510.3498535 793.4335938,564.9631348 746.3515625,510.3518066 717.3828125,510.3518066 717.3828125,598.5705566 
		746.3515625,598.5705566 	"/>
	<polygon points="176.3720703,410.1560059 193.8720703,410.1560059 193.8720703,428.6560059 208.4130859,428.6560059 
		208.4130859,410.1560059 225.9130859,410.1560059 225.9130859,457.8649902 208.4130859,457.8649902 208.4130859,439.3649902 
		193.8720703,439.3649902 193.8720703,457.8649902 176.3720703,457.8649902 	"/>
	<polygon points="233.9130859,410.1560059 283.4130859,410.1560059 283.3720703,420.8649902 251.3720703,420.8649902 
		251.3720703,428.6560059 281.1010742,428.6560059 281.0610352,439.3649902 251.3720703,439.3649902 251.3720703,447.1560059 
		283.4130859,447.1560059 283.3720703,457.8649902 233.8720703,457.8649902 	"/>
	<path d="M937.15625,559.2346191v-17.8945313h-63.0761719v17.8945313h34.1064453v18.3476563h-46.7753906v-49.9375h71.4521484
		v-18.5292969h-71.4521484c-28.9707031,0-28.9707031,18.5292969-28.9707031,18.5292969v49.9375c0,0,0,22.21875,28.96875,22.21875
		H908.1875c28.96875,0,28.96875-22.21875,28.96875-22.21875V559.2346191z"/>
	<polygon points="309.9443359,598.5666504 309.9443359,510.3479004 414.9658203,510.3479004 414.9658203,528.0627441 
		338.9130859,528.0627441 338.9130859,541.6994629 408.6640625,541.6994629 408.6640625,559.4143066 338.9130859,559.4143066 
		338.9130859,576.9553223 414.9658203,576.9553223 414.9658203,598.5686035 	"/>
	
		<rect x="496.4035645" y="403.5703125" transform="matrix(-0.7071068 0.7071068 -0.7071068 -0.7071068 1162.4655762 350.2229614)" width="24.5912952" height="24.5912952"/>
</g>
</svg>
